<svg width="512" height="512" viewBox="0 0 512 512" fill="none" xmlns="http://www.w3.org/2000/svg">
<path d="M399.211 256H298.667C275.103 256 256 236.897 256 213.333V112.512C256.059 92.622 246.866 73.834 231.125 61.675C216.209 49.863 196.651 45.653 178.197 50.283C52.7668 81.419 -23.6742 208.342 7.46277 333.773C29.3998 422.145 100.608 489.768 189.995 507.115C312.105 530.488 431.252 454.568 461.654 334.016C466.301 315.538 462.099 295.95 450.283 281.003C437.984 265.29 419.165 256.076 399.211 256Z" fill="#A6A6A6"/>
<path d="M504.555 158.848C499.685 140.746 492.432 123.371 482.987 107.179C454.577 58.441 408.169 22.804 353.75 7.93602C350.165 6.96902 342.144 6.40002 342.144 6.40002C339.278 6.40102 326.934 6.40002 317.163 14.315C302.802 25.616 300.544 38.464 300.331 39.467C299.586 42.613 299.199 45.834 299.179 49.067V149.334C299.179 184.68 327.833 213.334 363.179 213.334H463.851C477.207 213.372 489.778 207.031 497.686 196.267C503.534 188.382 506.542 178.75 506.219 168.939C506.049 165.523 505.491 162.137 504.555 158.848Z" fill="#A6A6A6"/>
</svg>
