<svg width="512" height="512" viewBox="0 0 512 512" fill="none" xmlns="http://www.w3.org/2000/svg">
<path d="M314.922 247.189C303.261 253.828 290.546 258.417 277.333 260.757V509.312C288.576 507.123 299.386 503.109 309.333 497.429L437.909 423.211C454.104 413.821 467.552 400.347 476.911 384.134C486.27 367.921 491.211 349.536 491.242 330.816V182.336C491.174 170.94 489.265 159.63 485.589 148.843L314.922 247.189Z" fill="white"/>
<path d="M218.496 210.283C229.921 216.855 242.872 220.313 256.053 220.313C269.234 220.313 282.184 216.855 293.61 210.283L464.277 111.936C456.718 103.251 447.798 95.8513 437.866 90.0267L309.333 15.7227C293.107 6.39192 274.717 1.48135 256 1.48135C237.282 1.48135 218.892 6.39192 202.666 15.7227L74.0902 89.9627C64.5127 95.571 55.8743 102.647 48.4902 110.933L218.496 210.283Z" fill="white"/>
<path d="M234.667 260.757C221.446 258.423 208.724 253.833 197.057 247.189L26.8165 147.691C22.8768 158.82 20.8289 170.53 20.7578 182.336V330.816C20.789 349.536 25.7307 367.921 35.0893 384.134C44.448 400.347 57.8962 413.821 74.0911 423.211L202.667 497.429C212.614 503.109 223.424 507.123 234.667 509.312V260.757Z" fill="white"/>
</svg>
