<svg width="512" height="512" viewBox="0 0 512 512" fill="none" xmlns="http://www.w3.org/2000/svg">
<g clip-path="url(#clip0_3634_248)">
<path d="M0 170.667V149.333C0 90.5173 47.8507 42.6667 106.667 42.6667H128V21.3333C128 9.55733 137.536 0 149.333 0C161.131 0 170.667 9.55733 170.667 21.3333V42.6667H341.333V21.3333C341.333 9.55733 350.869 0 362.667 0C374.464 0 384 9.55733 384 21.3333V42.6667H405.333C464.149 42.6667 512 90.5173 512 149.333V170.667H0ZM512 213.333V405.333C512 464.149 464.149 512 405.333 512H106.667C47.8507 512 0 464.149 0 405.333V213.333H512ZM256 405.333C256 393.557 246.464 384 234.667 384H128C116.203 384 106.667 393.557 106.667 405.333C106.667 417.109 116.203 426.667 128 426.667H234.667C246.464 426.667 256 417.109 256 405.333ZM405.333 320C405.333 308.224 395.797 298.667 384 298.667H128C116.203 298.667 106.667 308.224 106.667 320C106.667 331.776 116.203 341.333 128 341.333H384C395.797 341.333 405.333 331.776 405.333 320Z" fill="#A6A6A6"/>
</g>
<defs>
<clipPath id="clip0_3634_248">
<rect width="512" height="512" fill="white"/>
</clipPath>
</defs>
</svg>
