<svg width="512" height="512" viewBox="0 0 512 512" fill="none" xmlns="http://www.w3.org/2000/svg">
<g clip-path="url(#clip0_3669_232)">
<path d="M256 512C244.16 512 232.341 510.357 220.843 507.072L77.3547 466.091C31.808 453.077 0 410.901 0 363.52V85.3333C0 73.5573 9.55733 64 21.3333 64C33.1093 64 42.6667 73.5573 42.6667 85.3333V363.52C42.6667 391.957 61.76 417.259 89.088 425.067L232.576 466.048C247.915 470.421 264.107 470.421 279.467 466.048L422.933 425.067C450.261 417.259 469.355 391.957 469.355 363.52V64C469.355 52.224 478.912 42.6666 490.688 42.6666C502.464 42.6666 512.021 52.224 512.021 64V363.52C512.021 410.88 480.213 453.056 434.667 466.091L291.179 507.072C279.659 510.357 267.84 512 256.021 512H256ZM384.491 3.30661C368.96 -2.43205 351.659 -1.00272 336.277 5.14128L317.568 12.608C293.269 22.3146 277.312 45.8666 277.312 72.0426V381.291C270.315 383.083 263.168 384 255.979 384C248.789 384 241.643 383.083 234.645 381.291V72.0426C234.645 45.8666 218.709 22.3146 194.389 12.608L175.659 5.11995C160.277 -1.02405 142.976 -2.45339 127.445 3.30661C101.525 12.9066 85.2907 37.0773 85.2907 63.5093V334.741C85.2907 363.307 104.235 388.416 131.691 396.267L220.779 421.739C232.256 425.003 244.096 426.645 255.936 426.645C267.776 426.645 279.616 425.003 291.093 421.739L380.181 396.267C407.659 388.416 426.581 363.307 426.581 334.741V63.5093C426.581 37.0773 410.325 12.8853 384.405 3.30661H384.491Z" fill="#0A0A1A"/>
</g>
<defs>
<clipPath id="clip0_3669_232">
<rect width="512" height="512" fill="white"/>
</clipPath>
</defs>
</svg>
