<svg width="512" height="512" viewBox="0 0 512 512" fill="none" xmlns="http://www.w3.org/2000/svg">
<g clip-path="url(#clip0_3634_244)">
<path d="M330.667 0H181.333C140.096 0 106.667 33.4293 106.667 74.6667V181.333C106.667 222.571 140.096 256 181.333 256H195.286L234.432 290.496C240.598 295.957 248.342 298.667 256.064 298.667C263.723 298.667 271.339 296 277.398 290.667L317.461 256H330.667C371.904 256 405.333 222.571 405.333 181.333V74.6667C405.333 33.4293 371.904 0 330.667 0ZM324.992 121.173L270.997 179.499C262.635 187.755 251.883 191.829 241.237 191.829C230.891 191.829 220.672 187.947 212.843 180.309L187.2 153.365C179.072 144.832 179.413 131.328 187.968 123.2C196.501 115.051 210.027 115.456 218.134 123.947L241.515 148.544L293.675 92.1387C301.675 83.4773 315.158 82.944 323.819 90.9867C332.459 98.9867 332.992 112.491 324.992 121.131V121.173ZM131.413 371.563L147.03 417.195H108.971L124.438 371.947C124.928 370.944 126.827 369.771 128 369.771C129.216 369.771 131.029 370.795 131.413 371.563ZM234.667 405.355C234.667 464.256 186.902 512.021 128 512.021C69.0988 512.021 21.3335 464.256 21.3335 405.355C21.3335 346.453 69.0988 298.688 128 298.688C186.902 298.688 234.667 346.453 234.667 405.355ZM182.528 449.323L153.472 362.816C147.371 349.013 138.859 346.091 128 346.091C117.142 346.091 108.608 349.013 102.357 363.243L73.4722 449.301C70.9548 456.811 76.5442 464.597 84.4802 464.597C89.4508 464.597 93.8455 461.44 95.4668 456.747L100.885 440.896H155.158L160.576 456.747C162.176 461.44 166.592 464.597 171.542 464.597C179.478 464.597 185.067 456.832 182.528 449.323ZM419.499 430.272C418.88 436.416 413.376 440.917 407.19 440.917C398.656 440.917 382.997 440.917 372.139 440.917C365.59 440.917 360.299 435.605 360.299 429.056V417.195H407.702C414.635 417.195 420.203 423.189 419.499 430.251V430.272ZM407.638 380.459C407.019 374.315 401.494 369.813 395.307 369.813H372.139C365.59 369.813 360.278 375.125 360.278 381.675V393.536H395.84C402.773 393.536 408.341 387.52 407.638 380.459ZM490.667 405.355C490.667 464.256 442.902 512.021 384 512.021C325.099 512.021 277.333 464.256 277.333 405.355C277.333 346.453 325.099 298.688 384 298.688C442.902 298.688 490.667 346.453 490.667 405.355ZM443.136 431.979C444.245 418.219 437.44 405.909 426.816 399.104C429.888 393.685 431.552 387.392 431.382 380.693C430.87 361.259 414.293 346.091 394.837 346.091H376.747C353.536 346.091 336.576 363.072 336.576 384.021V426.688C336.576 447.637 353.558 464.619 374.507 464.619H406.763C425.451 464.619 441.643 450.603 443.136 431.979Z" fill="#A6A6A6"/>
</g>
<defs>
<clipPath id="clip0_3634_244">
<rect width="512" height="512" fill="white"/>
</clipPath>
</defs>
</svg>
