<svg width="512" height="512" viewBox="0 0 512 512" fill="none" xmlns="http://www.w3.org/2000/svg">
<g clip-path="url(#clip0_3634_227)">
<path d="M509.845 149.333H0V128C0 69.184 47.8507 21.3333 106.667 21.3333H160.597C170.475 21.3333 180.373 23.6586 189.205 28.0746L256.533 61.7386C259.477 63.2106 262.784 63.9786 266.069 63.9786H405.333C456.832 63.9786 499.925 100.715 509.845 149.333ZM512 192V384C512 442.816 464.149 490.667 405.333 490.667H106.667C47.8507 490.667 0 442.816 0 384V192H512ZM335.083 364.949C326.741 356.608 313.259 356.608 304.917 364.949L277.333 392.533V256C277.205 228.096 234.773 228.117 234.667 256V392.533L207.083 364.949C187.264 345.301 157.269 375.317 176.917 395.115L211.349 429.525C235.968 454.144 276.053 454.144 300.672 429.525L335.083 395.115C343.424 386.773 343.424 373.291 335.083 364.949Z" fill="white"/>
</g>
<defs>
<clipPath id="clip0_3634_227">
<rect width="512" height="512" fill="white"/>
</clipPath>
</defs>
</svg>
