<svg width="20" height="20" viewBox="0 0 20 20" fill="none" xmlns="http://www.w3.org/2000/svg">
<path d="M8.33366 3.75033V15.0003C8.33366 15.9003 7.96698 16.7253 7.38365 17.3253L7.35033 17.3587C7.27533 17.4337 7.192 17.5087 7.117 17.567C6.867 17.7837 6.58365 17.9503 6.29198 18.067C6.20032 18.1087 6.10866 18.142 6.01699 18.1753C5.69199 18.2837 5.34199 18.3337 5.00033 18.3337C4.77533 18.3337 4.55034 18.3087 4.33367 18.267C4.22534 18.242 4.11699 18.217 4.00866 18.1837C3.87532 18.142 3.75033 18.1003 3.62533 18.042C3.62533 18.0337 3.62532 18.0337 3.61699 18.042C3.38366 17.9253 3.15867 17.792 2.95033 17.6337L2.94199 17.6253C2.83366 17.542 2.73367 17.4587 2.642 17.3587C2.55034 17.2587 2.45866 17.1587 2.36699 17.0503C2.20866 16.842 2.07533 16.617 1.95866 16.3837C1.967 16.3753 1.967 16.3753 1.95866 16.3753C1.95866 16.3753 1.95866 16.367 1.95032 16.3587C1.90032 16.242 1.85865 16.117 1.81699 15.992C1.78365 15.8837 1.75865 15.7753 1.73365 15.667C1.69198 15.4503 1.66699 15.2253 1.66699 15.0003V3.75033C1.66699 2.50033 2.50033 1.66699 3.75033 1.66699H6.25033C7.50033 1.66699 8.33366 2.50033 8.33366 3.75033Z" stroke="#4D61C7" stroke-width="1.5" stroke-linecap="round" stroke-linejoin="round"/>
<path d="M18.3333 13.7503V16.2503C18.3333 17.5003 17.5 18.3337 16.25 18.3337H5C5.34167 18.3337 5.69167 18.2837 6.01667 18.1753C6.10833 18.142 6.19999 18.1087 6.29166 18.067C6.58332 17.9503 6.86667 17.7837 7.11667 17.567C7.19167 17.5087 7.27501 17.4337 7.35001 17.3587L7.38332 17.3253L13.05 11.667H16.25C17.5 11.667 18.3333 12.5003 18.3333 13.7503Z" stroke="#4D61C7" stroke-width="1.5" stroke-linecap="round" stroke-linejoin="round"/>
<path d="M4.00808 18.1829C3.50808 18.0329 3.03309 17.7579 2.64142 17.3579C2.24142 16.9662 1.96641 16.4912 1.81641 15.9912C2.14141 17.0329 2.96641 17.8579 4.00808 18.1829Z" stroke="#4D61C7" stroke-width="1.5" stroke-linecap="round" stroke-linejoin="round"/>
<path d="M15.3078 9.40845L13.0495 11.6668L7.38281 17.3251C7.96615 16.7251 8.33282 15.9001 8.33282 15.0001V6.95012L10.5912 4.6918C11.4745 3.80846 12.6578 3.80846 13.5412 4.6918L15.3078 6.45846C16.1912 7.34179 16.1912 8.52512 15.3078 9.40845Z" stroke="#4D61C7" stroke-width="1.5" stroke-linecap="round" stroke-linejoin="round"/>
<path d="M5.00033 15.8337C5.46056 15.8337 5.83366 15.4606 5.83366 15.0003C5.83366 14.5401 5.46056 14.167 5.00033 14.167C4.54009 14.167 4.16699 14.5401 4.16699 15.0003C4.16699 15.4606 4.54009 15.8337 5.00033 15.8337Z" stroke="#4D61C7" stroke-width="1.5" stroke-linecap="round" stroke-linejoin="round"/>
</svg>
