<svg width="20" height="20" viewBox="0 0 20 20" fill="none" xmlns="http://www.w3.org/2000/svg">
<path d="M9.1416 1.66699H7.47493C3.30827 1.66699 1.6416 3.33366 1.6416 7.50033V12.5003C1.6416 16.667 3.30827 18.3337 7.47493 18.3337H12.4749C16.6416 18.3337 18.3083 16.667 18.3083 12.5003V10.8337" stroke="white" stroke-width="1.5" stroke-linecap="round" stroke-linejoin="round"/>
<path d="M18.2329 2.9662C17.2079 5.52453 14.6329 9.00787 12.4829 10.7329L11.1662 11.7829C10.9995 11.9079 10.8329 12.0079 10.6412 12.0829C10.6412 11.9579 10.6329 11.8329 10.6162 11.6995C10.5412 11.1412 10.2912 10.6162 9.84121 10.1745C9.38288 9.7162 8.83288 9.45787 8.26621 9.38287C8.13288 9.37453 7.99954 9.3662 7.86621 9.37453C7.94121 9.1662 8.04954 8.97453 8.19121 8.8162L9.24121 7.49953C10.9662 5.34953 14.4579 2.75787 17.0079 1.73287C17.3995 1.58287 17.7829 1.69953 18.0245 1.9412C18.2745 2.1912 18.3912 2.57453 18.2329 2.9662Z" stroke="white" stroke-width="1.5" stroke-linecap="round" stroke-linejoin="round"/>
<path d="M10.6504 12.0751C10.6504 12.8084 10.3671 13.5084 9.84207 14.0417C9.43374 14.4501 8.88374 14.7334 8.2254 14.8167L6.58374 14.9917C5.69207 15.0917 4.9254 14.3334 5.0254 13.4251L5.2004 11.7834C5.35874 10.3251 6.5754 9.39173 7.8754 9.36673C8.00874 9.3584 8.14207 9.36673 8.2754 9.37507C8.84207 9.45007 9.39207 9.7084 9.8504 10.1667C10.3004 10.6167 10.5504 11.1334 10.6254 11.6917C10.6421 11.8251 10.6504 11.9584 10.6504 12.0751Z" stroke="white" stroke-width="1.5" stroke-linecap="round" stroke-linejoin="round"/>
<path d="M13.1837 9.98353C13.1837 8.24186 11.7754 6.8252 10.0254 6.8252" stroke="white" stroke-width="1.5" stroke-linecap="round" stroke-linejoin="round"/>
</svg>
