<svg width="512" height="512" viewBox="0 0 512 512" fill="none" xmlns="http://www.w3.org/2000/svg">
<g clip-path="url(#clip0_3634_240)">
<path d="M384 256C313.387 256 256 313.387 256 384C256 454.613 313.387 512 384 512C454.613 512 512 454.613 512 384C512 313.387 454.613 256 384 256ZM405.333 448C405.333 459.733 395.733 469.333 384 469.333C372.267 469.333 362.667 459.733 362.667 448V405.333C362.667 393.6 372.267 384 384 384C395.733 384 405.333 393.6 405.333 405.333V448ZM384 362.667C366.293 362.667 352 348.373 352 330.667C352 312.96 366.293 298.667 384 298.667C401.707 298.667 416 312.96 416 330.667C416 348.373 401.707 362.667 384 362.667ZM236.373 469.333H106.667C47.7867 469.333 0 421.547 0 362.667V106.667C0 47.7867 47.7867 0 106.667 0H213.333V106.667C213.333 141.867 242.133 170.667 277.333 170.667H384V213.333C289.92 213.333 213.333 289.92 213.333 384C213.333 415.147 221.867 444.16 236.373 469.333ZM256 106.667V3.2C265.813 6.4 274.773 11.52 282.24 18.7733L365.44 102.827C372.48 109.867 377.387 118.4 380.373 127.787H277.333C265.6 127.787 256 118.187 256 106.453V106.667Z" fill="white"/>
</g>
<defs>
<clipPath id="clip0_3634_240">
<rect width="512" height="512" fill="white"/>
</clipPath>
</defs>
</svg>
